<svg width="44" height="48" viewBox="0 0 44 48" fill="none" xmlns="http://www.w3.org/2000/svg">
<g clip-path="url(#clip0_2645_555)">
<g clip-path="url(#clip1_2645_555)">
<path d="M16.5176 33.75C14.8608 33.75 13.5176 32.4068 13.5176 30.75V27.75C13.5176 26.0932 14.8608 24.75 16.5176 24.75V33.75Z" fill="#6FA4D8"/>
</g>
<g clip-path="url(#clip2_2645_555)">
<path d="M28.5176 33.75C30.1743 33.75 31.5176 32.4068 31.5176 30.75V27.75C31.5176 26.0932 30.1743 24.75 28.5176 24.75V33.75Z" fill="#5C76B2"/>
</g>
<g clip-path="url(#clip3_2645_555)">
<path d="M28.5176 11.25H16.5176C14.8608 11.25 13.5176 12.5932 13.5176 14.25V21.75C13.5176 23.4067 14.8608 24.75 16.5176 24.75V33.75C16.5176 36.2355 18.5321 38.25 21.0176 38.25H24.0176C26.5031 38.25 28.5176 36.2355 28.5176 33.75V24.75C30.1743 24.75 31.5176 23.4067 31.5176 21.75V14.25C31.5176 12.5932 30.1743 11.25 28.5176 11.25Z" fill="#F68820"/>
</g>
<g clip-path="url(#clip4_2645_555)">
<path d="M19.5176 11.25H12.0176C11.1888 11.25 10.5176 10.5788 10.5176 9.75V9C10.5176 8.586 10.1816 8.25 9.76758 8.25C9.35358 8.25 9.01758 8.586 9.01758 9V11.25C9.01758 12.9068 10.3608 14.25 12.0176 14.25H18.0176C20.5031 14.25 22.5176 16.2645 22.5176 18.75V14.25C22.5176 12.5932 21.1743 11.25 19.5176 11.25Z" fill="#6FA4D8"/>
</g>
<g clip-path="url(#clip5_2645_555)">
<path d="M25.5176 11.25H33.0176C33.8463 11.25 34.5176 10.5788 34.5176 9.75V9C34.5176 8.586 34.8536 8.25 35.2676 8.25C35.6816 8.25 36.0176 8.586 36.0176 9V11.25C36.0176 12.9068 34.6743 14.25 33.0176 14.25H27.0176C24.5321 14.25 22.5176 16.2645 22.5176 18.75V14.25C22.5176 12.5932 23.8608 11.25 25.5176 11.25Z" fill="#5C76B2"/>
</g>
<g clip-path="url(#clip6_2645_555)">
<g clip-path="url(#clip7_2645_555)">
<path d="M34.5176 44.25V47.25H9.01758V44.25H34.5176Z" fill="#F68820"/>
</g>
<g clip-path="url(#clip8_2645_555)">
<path d="M34.5176 38.25V41.25H9.01758V38.25H34.5176Z" fill="#FBD301"/>
</g>
<g clip-path="url(#clip9_2645_555)">
<path d="M9.01758 41.25H34.5176V44.25H9.01758V41.25Z" fill="#FBBE18"/>
</g>
<g clip-path="url(#clip10_2645_555)">
<path d="M9.01753 38.25L0.688031 42.4148C0.411281 42.5528 0.411281 42.9472 0.688031 43.0852L9.01753 47.25V38.25Z" fill="#DB9E68"/>
</g>
<g clip-path="url(#clip11_2645_555)">
<path d="M9.01697 38.25L0.687469 42.4148C0.549469 42.4838 0.480469 42.6165 0.480469 42.75H9.01697V38.25Z" fill="#EEC78E"/>
</g>
<g clip-path="url(#clip12_2645_555)">
<path d="M1.51753 42L0.688031 42.4148C0.411281 42.5528 0.411281 42.9472 0.688031 43.0852L1.51753 43.5V42Z" fill="#353744"/>
</g>
<g clip-path="url(#clip13_2645_555)">
<path d="M37.5176 38.25V47.25H34.5176V38.25H37.5176Z" fill="#B3B4B6"/>
</g>
<g clip-path="url(#clip14_2645_555)">
<path d="M37.5176 38.25V42.75H34.5176V38.25H37.5176Z" fill="#DBDEE3"/>
</g>
<g clip-path="url(#clip15_2645_555)">
<path d="M43.5176 45V40.5C43.5176 39.2573 42.5103 38.25 41.2676 38.25H37.5176V47.25H40.5176H41.2676C42.5103 47.25 43.5176 46.2428 43.5176 45Z" fill="#353744"/>
</g>
<g clip-path="url(#clip16_2645_555)">
<path d="M43.5176 42.75V40.5C43.5176 39.2573 42.5103 38.25 41.2676 38.25H37.5176V42.75H43.5176Z" fill="#55525B"/>
</g>
</g>
<g clip-path="url(#clip17_2645_555)">
<path d="M39.0176 5.25H6.01758C5.18883 5.25 4.51758 4.57875 4.51758 3.75C4.51758 2.92125 5.18883 2.25 6.01758 2.25H39.0176C39.8463 2.25 40.5176 2.92125 40.5176 3.75C40.5176 4.57875 39.8463 5.25 39.0176 5.25Z" fill="#353744"/>
</g>
<g clip-path="url(#clip18_2645_555)">
<path d="M24.0176 3.75C24.0176 2.92125 23.3463 2.25 22.5176 2.25H6.01758C5.18883 2.25 4.51758 2.92125 4.51758 3.75C4.51758 4.578 5.18883 5.25 6.01758 5.25H22.5176C23.3463 5.25 24.0176 4.578 24.0176 3.75Z" fill="#55525B"/>
</g>
<g clip-path="url(#clip19_2645_555)">
<path d="M31.8926 11.25H13.1426C12.7286 11.25 12.3926 10.914 12.3926 10.5V5.25H32.6426V10.5C32.6426 10.914 32.3066 11.25 31.8926 11.25Z" fill="#353744"/>
</g>
<g clip-path="url(#clip20_2645_555)">
<path d="M22.5176 11.25H13.1426C12.7286 11.25 12.3926 10.914 12.3926 10.5V8.25H21.0176C21.8463 8.25 22.5176 8.92125 22.5176 9.75V11.25Z" fill="#55525B"/>
</g>
<g clip-path="url(#clip21_2645_555)">
<path d="M36.0176 2.25H37.5176V11.25H36.0176V2.25Z" fill="#F68820"/>
</g>
<g clip-path="url(#clip22_2645_555)">
<path d="M21.0176 2.25H37.5176C37.5176 1.42125 36.8463 0.75 36.0176 0.75H22.5176C21.6888 0.75 21.0176 1.42125 21.0176 2.25Z" fill="#FBBE18"/>
</g>
<g clip-path="url(#clip23_2645_555)">
<path d="M36.7676 12.75C37.596 12.75 38.2676 12.0784 38.2676 11.25C38.2676 10.4216 37.596 9.75 36.7676 9.75C35.9392 9.75 35.2676 10.4216 35.2676 11.25C35.2676 12.0784 35.9392 12.75 36.7676 12.75Z" fill="#FBBE18"/>
</g>
<g clip-path="url(#clip24_2645_555)">
<path d="M35.2676 11.25H38.2676V12.75H35.2676V11.25Z" fill="#B3B4B6"/>
</g>
<g clip-path="url(#clip25_2645_555)">
<path d="M35.2676 11.25H36.7676V12.75H35.2676V11.25Z" fill="#DBDEE3"/>
</g>
<g clip-path="url(#clip26_2645_555)">
<path d="M36.7676 18.75H35.2676C34.8536 18.75 34.5176 18.414 34.5176 18V13.5C34.5176 13.086 34.8536 12.75 35.2676 12.75H36.7676V18.75Z" fill="#FBBE18"/>
</g>
<g clip-path="url(#clip27_2645_555)">
<path d="M36.7676 18.75H38.2676C38.6816 18.75 39.0176 18.414 39.0176 18V13.5C39.0176 13.086 38.6816 12.75 38.2676 12.75H36.7676V18.75Z" fill="#F68820"/>
</g>
<g clip-path="url(#clip28_2645_555)">
<path d="M36.0176 18.75V13.875C36.0176 13.668 35.8496 13.5 35.6426 13.5C35.4356 13.5 35.2676 13.668 35.2676 13.875V18.75H36.0176Z" fill="#F68820"/>
</g>
<g clip-path="url(#clip29_2645_555)">
<path d="M38.2676 18.75V16.125C38.2676 15.918 38.0996 15.75 37.8926 15.75C37.6856 15.75 37.5176 15.918 37.5176 16.125V18.75H38.2676Z" fill="#FBBE18"/>
</g>
<g clip-path="url(#clip30_2645_555)">
<path d="M18.0176 23.25C20.5029 23.25 22.5176 21.2353 22.5176 18.75C22.5176 16.2647 20.5029 14.25 18.0176 14.25C15.5323 14.25 13.5176 16.2647 13.5176 18.75C13.5176 21.2353 15.5323 23.25 18.0176 23.25Z" fill="#DBDEE3"/>
</g>
<g clip-path="url(#clip31_2645_555)">
<path d="M18.0176 23.25C20.5029 23.25 22.5176 21.2353 22.5176 18.75C22.5176 16.2647 20.5029 14.25 18.0176 14.25C15.5323 14.25 13.5176 16.2647 13.5176 18.75C13.5176 21.2353 15.5323 23.25 18.0176 23.25Z" fill="#DBDEE3"/>
</g>
<g clip-path="url(#clip32_2645_555)">
<path d="M18.0176 20.25C18.846 20.25 19.5176 19.5784 19.5176 18.75C19.5176 17.9216 18.846 17.25 18.0176 17.25C17.1892 17.25 16.5176 17.9216 16.5176 18.75C16.5176 19.5784 17.1892 20.25 18.0176 20.25Z" fill="#55525B"/>
</g>
<g clip-path="url(#clip33_2645_555)">
<path d="M27.0176 23.25C29.5029 23.25 31.5176 21.2353 31.5176 18.75C31.5176 16.2647 29.5029 14.25 27.0176 14.25C24.5323 14.25 22.5176 16.2647 22.5176 18.75C22.5176 21.2353 24.5323 23.25 27.0176 23.25Z" fill="#DBDEE3"/>
</g>
<g clip-path="url(#clip34_2645_555)">
<path d="M27.0176 20.25C27.846 20.25 28.5176 19.5784 28.5176 18.75C28.5176 17.9216 27.846 17.25 27.0176 17.25C26.1892 17.25 25.5176 17.9216 25.5176 18.75C25.5176 19.5784 26.1892 20.25 27.0176 20.25Z" fill="#55525B"/>
</g>
<g clip-path="url(#clip35_2645_555)">
<path d="M22.5184 18.75C23.4484 18.75 24.1114 19.6523 23.8339 20.5395L23.2339 22.4588C23.0149 23.1608 22.0211 23.1608 21.8021 22.4588L21.2021 20.5395C20.9254 19.6523 21.5884 18.75 22.5184 18.75Z" fill="#55525B"/>
</g>
<g clip-path="url(#clip36_2645_555)">
<path d="M20.2676 26.25C19.4388 26.25 18.7676 25.5788 18.7676 24.75H21.7676C21.7676 25.5788 21.0963 26.25 20.2676 26.25Z" fill="#FBBE18"/>
</g>
<g clip-path="url(#clip37_2645_555)">
<path d="M24.7676 26.25C23.9388 26.25 23.2676 25.5788 23.2676 24.75H26.2676C26.2676 25.5788 25.5963 26.25 24.7676 26.25Z" fill="#FBBE18"/>
</g>
<g clip-path="url(#clip38_2645_555)">
<path d="M20.2676 32.25C19.4388 32.25 18.7676 31.5788 18.7676 30.75H21.7676C21.7676 31.5788 21.0963 32.25 20.2676 32.25Z" fill="#FBBE18"/>
</g>
<g clip-path="url(#clip39_2645_555)">
<path d="M24.7676 32.25C23.9388 32.25 23.2676 31.5788 23.2676 30.75H26.2676C26.2676 31.5788 25.5963 32.25 24.7676 32.25Z" fill="#FBBE18"/>
</g>
<g clip-path="url(#clip40_2645_555)">
<path d="M22.5176 29.25C21.6888 29.25 21.0176 28.5788 21.0176 27.75H24.0176C24.0176 28.5788 23.3463 29.25 22.5176 29.25Z" fill="#FBBE18"/>
</g>
<g clip-path="url(#clip41_2645_555)">
<path d="M22.5176 35.25C21.6888 35.25 21.0176 34.5788 21.0176 33.75H24.0176C24.0176 34.5788 23.3463 35.25 22.5176 35.25Z" fill="#FBBE18"/>
</g>
<g clip-path="url(#clip42_2645_555)">
<path d="M17.6426 39.75C18.0566 39.75 18.3926 39.414 18.3926 39V37.5C18.3926 37.086 18.0566 36.75 17.6426 36.75C17.2286 36.75 16.8926 37.086 16.8926 37.5V39C16.8926 39.414 17.2286 39.75 17.6426 39.75Z" fill="#6FA4D8"/>
</g>
<g clip-path="url(#clip43_2645_555)">
<path d="M19.1426 39.75C19.5566 39.75 19.8926 39.414 19.8926 39V37.5C19.8926 37.086 19.5566 36.75 19.1426 36.75C18.7286 36.75 18.3926 37.086 18.3926 37.5V39C18.3926 39.414 18.7286 39.75 19.1426 39.75Z" fill="#6FA4D8"/>
</g>
<g clip-path="url(#clip44_2645_555)">
<path d="M20.6426 39.75C21.0566 39.75 21.3926 39.414 21.3926 39V37.5C21.3926 37.086 21.0566 36.75 20.6426 36.75C20.2286 36.75 19.8926 37.086 19.8926 37.5V39C19.8926 39.414 20.2286 39.75 20.6426 39.75Z" fill="#6FA4D8"/>
</g>
<g clip-path="url(#clip45_2645_555)">
<path d="M24.3926 39.75C24.8066 39.75 25.1426 39.414 25.1426 39V37.5C25.1426 37.086 24.8066 36.75 24.3926 36.75C23.9786 36.75 23.6426 37.086 23.6426 37.5V39C23.6426 39.414 23.9786 39.75 24.3926 39.75Z" fill="#6FA4D8"/>
</g>
<g clip-path="url(#clip46_2645_555)">
<path d="M25.8926 39.75C26.3066 39.75 26.6426 39.414 26.6426 39V37.5C26.6426 37.086 26.3066 36.75 25.8926 36.75C25.4786 36.75 25.1426 37.086 25.1426 37.5V39C25.1426 39.414 25.4786 39.75 25.8926 39.75Z" fill="#6FA4D8"/>
</g>
<g clip-path="url(#clip47_2645_555)">
<path d="M27.3926 39.75C27.8066 39.75 28.1426 39.414 28.1426 39V37.5C28.1426 37.086 27.8066 36.75 27.3926 36.75C26.9786 36.75 26.6426 37.086 26.6426 37.5V39C26.6426 39.414 26.9786 39.75 27.3926 39.75Z" fill="#6FA4D8"/>
</g>
</g>
<defs>
<clipPath id="clip0_2645_555">
<rect width="43.0371" height="46.5" fill="white" transform="translate(0.480469 0.75)"/>
</clipPath>
<clipPath id="clip1_2645_555">
<rect width="3" height="9" fill="white" transform="translate(13.5176 24.75)"/>
</clipPath>
<clipPath id="clip2_2645_555">
<rect width="3" height="9" fill="white" transform="translate(28.5176 24.75)"/>
</clipPath>
<clipPath id="clip3_2645_555">
<rect width="18" height="27" fill="white" transform="translate(13.5176 11.25)"/>
</clipPath>
<clipPath id="clip4_2645_555">
<rect width="13.5" height="10.5" fill="white" transform="translate(9.01758 8.25)"/>
</clipPath>
<clipPath id="clip5_2645_555">
<rect width="13.5" height="10.5" fill="white" transform="translate(22.5176 8.25)"/>
</clipPath>
<clipPath id="clip6_2645_555">
<rect width="43.0371" height="9.00001" fill="white" transform="translate(0.480469 38.25)"/>
</clipPath>
<clipPath id="clip7_2645_555">
<rect width="25.5" height="3.00001" fill="white" transform="translate(9.01758 44.25)"/>
</clipPath>
<clipPath id="clip8_2645_555">
<rect width="25.5" height="3.00001" fill="white" transform="translate(9.01758 38.25)"/>
</clipPath>
<clipPath id="clip9_2645_555">
<rect width="25.5" height="3" fill="white" transform="translate(9.01758 41.25)"/>
</clipPath>
<clipPath id="clip10_2645_555">
<rect width="8.53706" height="9" fill="white" transform="translate(0.480469 38.25)"/>
</clipPath>
<clipPath id="clip11_2645_555">
<rect width="8.5365" height="4.5" fill="white" transform="translate(0.480469 38.25)"/>
</clipPath>
<clipPath id="clip12_2645_555">
<rect width="1.03706" height="1.5" fill="white" transform="translate(0.480469 42)"/>
</clipPath>
<clipPath id="clip13_2645_555">
<rect width="3" height="9" fill="white" transform="translate(34.5176 38.25)"/>
</clipPath>
<clipPath id="clip14_2645_555">
<rect width="3" height="4.5" fill="white" transform="translate(34.5176 38.25)"/>
</clipPath>
<clipPath id="clip15_2645_555">
<rect width="6" height="9" fill="white" transform="translate(37.5176 38.25)"/>
</clipPath>
<clipPath id="clip16_2645_555">
<rect width="6" height="4.5" fill="white" transform="translate(37.5176 38.25)"/>
</clipPath>
<clipPath id="clip17_2645_555">
<rect width="36" height="3" fill="white" transform="translate(4.51758 2.25)"/>
</clipPath>
<clipPath id="clip18_2645_555">
<rect width="19.5" height="3" fill="white" transform="translate(4.51758 2.25)"/>
</clipPath>
<clipPath id="clip19_2645_555">
<rect width="20.25" height="6" fill="white" transform="translate(12.3926 5.25)"/>
</clipPath>
<clipPath id="clip20_2645_555">
<rect width="10.125" height="3" fill="white" transform="translate(12.3926 8.25)"/>
</clipPath>
<clipPath id="clip21_2645_555">
<rect width="1.5" height="9" fill="white" transform="translate(36.0176 2.25)"/>
</clipPath>
<clipPath id="clip22_2645_555">
<rect width="16.5" height="1.5" fill="white" transform="translate(21.0176 0.75)"/>
</clipPath>
<clipPath id="clip23_2645_555">
<rect width="3" height="3" fill="white" transform="translate(35.2676 9.75)"/>
</clipPath>
<clipPath id="clip24_2645_555">
<rect width="3" height="1.5" fill="white" transform="translate(35.2676 11.25)"/>
</clipPath>
<clipPath id="clip25_2645_555">
<rect width="1.5" height="1.5" fill="white" transform="translate(35.2676 11.25)"/>
</clipPath>
<clipPath id="clip26_2645_555">
<rect width="2.25" height="6" fill="white" transform="translate(34.5176 12.75)"/>
</clipPath>
<clipPath id="clip27_2645_555">
<rect width="2.25" height="6" fill="white" transform="translate(36.7676 12.75)"/>
</clipPath>
<clipPath id="clip28_2645_555">
<rect width="0.75" height="5.25" fill="white" transform="translate(35.2676 13.5)"/>
</clipPath>
<clipPath id="clip29_2645_555">
<rect width="0.749996" height="3" fill="white" transform="translate(37.5176 15.75)"/>
</clipPath>
<clipPath id="clip30_2645_555">
<rect width="9.00001" height="9" fill="white" transform="translate(13.5176 14.25)"/>
</clipPath>
<clipPath id="clip31_2645_555">
<rect width="9.00001" height="9" fill="white" transform="translate(13.5176 14.25)"/>
</clipPath>
<clipPath id="clip32_2645_555">
<rect width="3" height="3" fill="white" transform="translate(16.5176 17.25)"/>
</clipPath>
<clipPath id="clip33_2645_555">
<rect width="9" height="9" fill="white" transform="translate(22.5176 14.25)"/>
</clipPath>
<clipPath id="clip34_2645_555">
<rect width="3" height="3" fill="white" transform="translate(25.5176 17.25)"/>
</clipPath>
<clipPath id="clip35_2645_555">
<rect width="2.75898" height="4.23525" fill="white" transform="translate(21.1387 18.75)"/>
</clipPath>
<clipPath id="clip36_2645_555">
<rect width="3" height="1.5" fill="white" transform="translate(18.7676 24.75)"/>
</clipPath>
<clipPath id="clip37_2645_555">
<rect width="3" height="1.5" fill="white" transform="translate(23.2676 24.75)"/>
</clipPath>
<clipPath id="clip38_2645_555">
<rect width="3" height="1.5" fill="white" transform="translate(18.7676 30.75)"/>
</clipPath>
<clipPath id="clip39_2645_555">
<rect width="3" height="1.5" fill="white" transform="translate(23.2676 30.75)"/>
</clipPath>
<clipPath id="clip40_2645_555">
<rect width="3.00001" height="1.5" fill="white" transform="translate(21.0176 27.75)"/>
</clipPath>
<clipPath id="clip41_2645_555">
<rect width="3.00001" height="1.5" fill="white" transform="translate(21.0176 33.75)"/>
</clipPath>
<clipPath id="clip42_2645_555">
<rect width="1.5" height="3" fill="white" transform="translate(16.8926 36.75)"/>
</clipPath>
<clipPath id="clip43_2645_555">
<rect width="1.5" height="3" fill="white" transform="translate(18.3926 36.75)"/>
</clipPath>
<clipPath id="clip44_2645_555">
<rect width="1.5" height="3" fill="white" transform="translate(19.8926 36.75)"/>
</clipPath>
<clipPath id="clip45_2645_555">
<rect width="1.5" height="3" fill="white" transform="translate(23.6426 36.75)"/>
</clipPath>
<clipPath id="clip46_2645_555">
<rect width="1.5" height="3" fill="white" transform="translate(25.1426 36.75)"/>
</clipPath>
<clipPath id="clip47_2645_555">
<rect width="1.5" height="3" fill="white" transform="translate(26.6426 36.75)"/>
</clipPath>
</defs>
</svg>
